<svg class="svg-icon" style="width: 1em; height: 1em;vertical-align: middle;fill: currentColor;overflow: hidden;" viewBox="0 0 1024 1024" version="1.1" xmlns="http://www.w3.org/2000/svg"><path d="M118.4 540.8c19.2-16 48-16 67.2 0l227.2 227.2c19.2 19.2 16 48 0 64-19.2 16-48 16-67.2 0l-227.2-227.2c-19.2-16-19.2-44.8 0-64m284.8 128l-112-112c-19.2-19.2-16-48 0-64 19.2-16 48-16 67.2 0l112 112c19.2 19.2 16 48 0 64-19.2 19.2-48 16-67.2 0m6.4-220.8c-19.2-19.2-16-48 0-64 19.2-16 48-16 67.2 0l438.4 435.2s28.8 35.2 0 64c-32 28.8-67.2 0-67.2 0L409.6 448z m473.6-44.8c-19.2 16-48 16-67.2 0l-227.2-227.2c-19.2-19.2-16-48 0-64 19.2-16 48-16 67.2 0l227.2 227.2c19.2 16 19.2 44.8 0 64m-288-128l112 112c19.2 19.2 16 48 0 64-19.2 16-48 16-67.2 0l-112-112c-19.2-19.2-16-48 0-64 19.2-19.2 48-16 67.2 0"  /></svg>